#!OML:ASF F:\twosubjects\two\wednesday\Session 1\rory1.ASF
:FULLY-SPECIFIED
:DEGREES
211
root -6.53736 16.8296 -5.86029 185.604 17.8746 -170.464
lowerback 12.0194 1.8622 -12.4557
upperback 4.20836 1.68042 -4.36464
thorax -2.40821 1.13484 2.12891
lowerneck -1.02591 -21.5647 -20.1142
upperneck 2.45425 -31.7169 29.9055
head 9.37317 -14.7692 8.23059
rclavicle 5.80451e-014 4.45278e-014
rhumerus 64.0759 -69.7812 -99.476
rradius 14.7728
rwrist -14.363
rhand 3.77508 -2.52174
rfingers 7.12502
rthumb 29.2009 -30.2508
lclavicle 5.80451e-014 4.45278e-014
lhumerus -28.1073 8.66083 45.515
lradius 26.007
lwrist 2.32287
lhand -23.1436 22.9669
lfingers 7.12502
lthumb 3.30442 52.9211
rfemur -29.8866 1.70811 10.8769
rtibia 55.3545
rfoot -7.49625 -8.90577
rtoes -1.29003
lfemur -22.0837 5.23133 -14.0078
ltibia 56.6651
lfoot -33.1177 8.35132
ltoes -21.2301
212
root -6.6479 16.8201 -6.03893 186.167 19.0296 -170.195
lowerback 11.9099 1.77119 -12.3125
upperback 4.27427 1.58356 -4.27948
thorax -2.26837 1.06963 2.16085
lowerneck -0.854762 -21.6004 -20.2415
upperneck 2.25217 -31.7763 30.0056
head 9.33601 -14.8347 8.27227
rclavicle 3.4191e-014 6.99722e-014
rhumerus 67.6629 -69.8083 -102.899
rradius 14.5895
rwrist -13.0862
rhand 3.90718 -2.52245
rfingers 7.12502
rthumb 29.3271 -30.2295
lclavicle 3.4191e-014 6.99722e-014
lhumerus -27.2323 8.7313 45.6428
lradius 25.8351
lwrist 1.29601
lhand -27.1404 21.3331
lfingers 7.12502
lthumb -0.555714 51.3121
rfemur -31.5091 0.337483 11.5948
rtibia 56.7455
rfoot -7.93234 -6.66042
rtoes -2.53395
lfemur -21.6624 6.02997 -14.4835
ltibia 56.3793
lfoot -33.8114 8.2969
ltoes -18.7855
213
root -6.74824 16.8204 -6.22569 186.841 19.9882 -170.011
lowerback 11.7792 1.71884 -12.3334
upperback 4.04741 1.47083 -4.27156
thorax -2.42929 1.01321 2.19611
lowerneck -0.0456106 -21.5686 -20.1799
upperneck 2.22601 -31.8414 30.0604
head 9.20835 -14.9567 8.35705
rclavicle 3.65764e-014 5.725e-014
rhumerus 64.0971 -69.6723 -99.2515
rradius 14.8237
rwrist -14.3773
rhand 3.88394 -2.33464
rfingers 7.12502
rthumb 29.3049 -30.0456
lclavicle 3.65764e-014 5.725e-014
lhumerus -26.4699 8.48937 45.4908
lradius 25.7112
lwrist 0.374669
lhand -25.8812 20.7755
lfingers 7.12502
lthumb 0.660484 50.7542
rfemur -33.0937 -1.15574 12.3514
rtibia 57.768
rfoot -8.20574 -4.57225
rtoes -5.27602
lfemur -21.3199 6.66276 -15.0556
ltibia 55.9423
lfoot -34.5195 8.26142
ltoes -17.5831
214
root -6.83894 16.8354 -6.4157 187.611 20.917 -169.605
lowerback 11.5151 1.57977 -12.1551
upperback 3.95984 1.31225 -4.27964
thorax -2.3594 0.923096 2.11936
lowerneck -0.104932 -21.5728 -19.5215
upperneck 2.6045 -31.8403 29.5944
head 9.12253 -14.9485 8.14266
rclavicle -9.62118e-014 9.22361e-014
rhumerus 61.8648 -69.441 -97.1904
rradius 14.9954
rwrist -15.643
rhand 3.62331 -2.17367
rfingers 7.12502
rthumb 29.056 -29.9278
lclavicle -9.62118e-014 9.22361e-014
lhumerus -25.699 8.1526 45.2956
lradius 25.9314
lwrist 0.301346
lhand -25.1233 20.3445
lfingers 7.12502
lthumb 1.39244 50.3197
rfemur -34.5536 -2.43816 13.4583
rtibia 58.4371
rfoot -8.75319 -3.09612
rtoes -5.64731
lfemur -20.9433 7.21964 -15.3847
ltibia 55.2979
lfoot -34.8656 9.02496
ltoes -19.0025
215
root -6.91813 16.8627 -6.61228 188.237 21.8013 -169.123
lowerback 11.1521 1.43246 -11.8799
upperback 4.2001 1.23157 -4.25585
thorax -1.89297 0.854012 2.02039
lowerneck -0.0858494 -21.6255 -18.4692
upperneck 2.28068 -31.7458 29.156
head 8.709 -14.9397 7.93479
rclavicle 2.06736e-014 0
rhumerus 66.9148 -70.0371 -102.55
rradius 14.7419
rwrist -13.7758
rhand 4.83384 -1.38592
rfingers 7.12502
rthumb 30.2115 -28.9347
lclavicle 2.06736e-014 0
lhumerus -24.4789 8.41502 45.1965
lradius 26.0545
lwrist 0.13106
lhand -24.5835 20.2852
lfingers 7.12502
lthumb 1.91387 50.2564
rfemur -35.6399 -3.57792 14.7248
rtibia 58.807
rfoot -9.57367 -2.39854
rtoes -3.81463
lfemur -20.2222 7.58745 -15.6017
ltibia 54.4201
lfoot -35.1407 9.55836
ltoes -19.1261
216
root -6.98672 16.8848 -6.81294 188.652 22.5869 -168.98
lowerback 11.1878 1.33498 -11.9828
upperback 4.25201 1.08842 -4.22146
thorax -1.84078 0.776572 2.13196
lowerneck -0.358138 -21.7547 -18.189
upperneck 2.94026 -31.9824 28.5857
head 8.85068 -15.0171 7.6335
rclavicle 1.66979e-014 -8.90555e-014
rhumerus 67.6552 -70.2504 -103.505
rradius 14.7744
rwrist -13.3224
rhand 4.66051 -0.66342
rfingers 7.12502
rthumb 30.0461 -28.2423
lclavicle 1.66979e-014 -8.90555e-014
lhumerus -23.4051 9.2009 45.0938
lradius 25.9991
lwrist -0.747122
lhand -22.8573 21.2078
lfingers 7.12502
lthumb 3.58095 51.1574
rfemur -36.5136 -4.85326 15.7308
rtibia 58.9452
rfoot -10.161 -2.6037
rtoes -4.01966
lfemur -19.2924 7.71777 -16.1325
ltibia 53.3632
lfoot -35.5094 9.5687
ltoes -17.5293
217
root -7.04627 16.9103 -7.01493 188.966 23.3487 -169.174
lowerback 11.5553 1.25006 -12.5638
upperback 4.04242 0.815942 -4.17053
thorax -2.23251 0.658655 2.528
lowerneck -0.362413 -21.6492 -18.6646
upperneck 3.70302 -32.0368 28.6648
head 9.21965 -15.0091 7.68657
rclavicle -3.81667e-014 -4.45278e-014
rhumerus 66.0746 -70.2929 -102.086
rradius 14.8077
rwrist -14.2571
rhand 3.63649 -0.192708
rfingers 7.12502
rthumb 29.0686 -27.9446
lclavicle -3.81667e-014 -4.45278e-014
lhumerus -22.7137 9.40262 45.0863
lradius 25.9514
lwrist -0.729864
lhand -22.1877 21.6483
lfingers 7.12502
lthumb 4.22751 51.5861
rfemur -37.4114 -6.13833 16.4373
rtibia 58.82
rfoot -10.5144 -3.32441
rtoes -4.46246
lfemur -18.3331 7.72176 -16.9858
ltibia 52.0907
lfoot -35.6062 9.87841
ltoes -16.7367
218
root -7.10018 16.9369 -7.22092 189.393 24.1684 -169.303
lowerback 11.7329 1.11882 -13.0456
upperback 3.85111 0.52068 -4.14161
thorax -2.49315 0.524906 2.85659
lowerneck -0.0696369 -21.3799 -19.3483
upperneck 4.00442 -31.8724 29.3425
head 9.51012 -14.9307 8.05134
rclavicle 2.14687e-014 -9.54166e-015
rhumerus 70.0723 -70.9416 -106.418
rradius 14.5026
rwrist -13.4099
rhand 4.94344 0.161836
rfingers 7.12502
rthumb 30.316 -27.3677
lclavicle 2.14687e-014 -9.54166e-015
lhumerus -22.1305 9.32117 45.0204
lradius 25.985
lwrist -0.512579
lhand -23.6393 21.5393
lfingers 7.12502
lthumb 2.82574 51.5004
rfemur -38.403 -7.28381 17.2084
rtibia 58.4427
rfoot -10.9251 -4.47956
rtoes -5.39939
lfemur -17.4589 7.68999 -17.8113
ltibia 50.6687
lfoot -35.3127 10.9065
ltoes -18.4858
219
root -7.15529 16.9939 -7.44142 189.958 25.0684 -169.129
lowerback 11.6478 0.964744 -13.1465
upperback 3.82451 0.303027 -4.09705
thorax -2.44403 0.408938 2.99036
lowerneck 0.266059 -21.1734 -19.9988
upperneck 3.8518 -31.7363 30.1852
head 9.68137 -14.8906 8.46852
rclavicle -1.74931e-014 -3.18055e-015
rhumerus 74.3666 -71.3454 -111.103
rradius 14.33
rwrist -12.4466
rhand 5.90734 0.3531
rfingers 7.12502
rthumb 31.235 -27.0033
lclavicle -1.74931e-014 -3.18055e-015
lhumerus -21.5417 9.67879 44.9898
lradius 26.2412
lwrist -0.386058
lhand -25.2476 21.4318
lfingers 7.12502
lthumb 1.2724 51.4078
rfemur -39.2066 -8.23743 18.2537
rtibia 57.6778
rfoot -11.2535 -6.24595
rtoes -6.12193
lfemur -16.5184 7.68423 -18.3888
ltibia 49.1327
lfoot -35.0126 12.2969
ltoes -20.5783
220
root -7.20404 17.0697 -7.67155 190.588 25.9876 -168.991
lowerback 11.316 0.838203 -13.2979
upperback 3.87482 0.1721 -4.03936
thorax -2.1872 0.322403 3.15606
lowerneck 0.438134 -21.1221 -20.5342
upperneck 3.65721 -31.7741 30.8219
head 9.84381 -14.9258 8.73847
rclavicle 1.98785e-014 3.18055e-015
rhumerus 76.7842 -71.4681 -113.768
rradius 14.2308
rwrist -11.8834
rhand 5.04476 0.852004
rfingers 7.12502
rthumb 30.4127 -26.6597
lclavicle 1.98785e-014 3.18055e-015
lhumerus -20.974 9.47419 45.1428
lradius 26.8992
lwrist 0.703291
lhand -27.0952 20.2943
lfingers 7.12502
lthumb -0.512017 50.2734
rfemur -39.9059 -9.01902 19.2627
rtibia 56.5629
rfoot -11.578 -8.29954
rtoes -4.75682
lfemur -15.5091 7.57802 -18.9902
ltibia 47.5416
lfoot -35.1123 12.6813
ltoes -19.2397
221
root -7.24277 17.1371 -7.90645 191.488 27.0087 -168.728
lowerback 10.5711 0.73429 -13.3194
upperback 3.88155 0.142122 -4.01539
thorax -1.7668 0.273947 3.20392
lowerneck 0.248887 -21.155 -20.3482
upperneck 3.83221 -31.8228 30.6923
head 9.8852 -14.9274 8.64125
rclavicle -6.36111e-015 3.18055e-015
rhumerus 83.5273 -71.7339 -120.892
rradius 13.9509
rwrist -9.23517
rhand 5.11095 1.40319
rfingers 7.12502
rthumb 30.4758 -26.0969
lclavicle -6.36111e-015 3.18055e-015
lhumerus -20.2731 8.54699 45.1527
lradius 27.6461
lwrist 2.1238
lhand -28.2275 19.782
lfingers 7.12502
lthumb -1.60568 49.7557
rfemur -40.6367 -9.56085 20.389
rtibia 55.14
rfoot -12.1045 -10.1652
rtoes -1.73957
lfemur -14.6696 7.27467 -19.453
ltibia 45.9841
lfoot -35.187 12.2211
ltoes -17.3778
